<svg id="Layer_1" data-name="Layer 1" xmlns="http://www.w3.org/2000/svg" viewBox="0 0 1129.65 686.68"><defs><style>.cls-1{fill:#007eb2;}.cls-2{fill:#fff;opacity:0.6;}.cls-3,.cls-5{fill:#003a79;}.cls-3{stroke:#fff;stroke-miterlimit:10;stroke-width:0.25px;}.cls-4,.cls-6{fill:#f9f9f9;}.cls-6{stroke:#000;}</style></defs><path class="cls-1" d="M-366.14,2233.57C-404.78,2283-489,2376.71-629,2435.3c-148.62,62.21-278.26,50.52-344.73,43.82-153.82-15.5-267.39-73.62-328.08-110.67,65.81,27.11,168.85,58.72,295.72,54.42,284.18-9.64,469.87-192.06,516.48-240.73Z" transform="translate(1426.58 -1797.94)"/><polygon class="cls-2" points="156.97 543.82 128.04 303.21 75.45 287.43 289.76 98.1 344.99 148.06 331.84 170.41 253.87 242.73 279.25 233.23 502.33 34.99 518.54 21.11 769.67 246.67 780.19 244.04 690.79 159.9 743.38 108.62 906.15 248.48 156.97 543.82"/><path class="cls-3" d="M-1332.72,2084l190.65-170.92,50,42.07-98.61,94.67,42.07,1.31,239.3-222.2,241.93,223.52h31.56v-10.52l-90.73-80.21,51.28-50,180.13,157.78v21H-524.1q.65,34.85,1.31,69.68c-46.14,50.57-124.67,122.52-240.61,172.24-237.24,101.74-457.88,36.13-522,14.47q-2.62-125.57-5.26-251.13Z" transform="translate(1426.58 -1797.94)"/><path class="cls-1" d="M-878.93,1797.94A127.69,127.69,0,0,1-862,1813.1a128.73,128.73,0,0,1,13.38,17,484.07,484.07,0,0,1,117.75-3.57,483.12,483.12,0,0,1,92.78,17.84,708.22,708.22,0,0,0-90.1-27.65A708.75,708.75,0,0,0-878.93,1797.94Z" transform="translate(1426.58 -1797.94)"/><path class="cls-1" d="M-974.38,1844.32l53.52-46.38a776.73,776.73,0,0,0-177.52,22.3c-30.93,7.59-69.63,17.08-113.29,37.46-53.08,24.78-175,81.7-207.26,201.76-6.51,24.25-19,86.89,15.47,170.23-4.55-25.62-8.71-71.66,11.59-120.42,13.84-33.23,33.12-53.55,62.45-83.86A667.72,667.72,0,0,1-1209,1927.28l70.47-62.44,25.87,18.73Z" transform="translate(1426.58 -1797.94)"/><path class="cls-4" d="M-931.71,2194.71v63.93h-67V2021.87h115c63.59,0,95,39.92,95,86.25,0,48.37-31.79,85.92-95,86.59Zm0-56.48h48c18.6,0,28.07-13.53,28.07-29.09s-9.81-29.77-28.07-29.77h-48Z" transform="translate(1426.58 -1797.94)"/><path class="cls-4" d="M-910.9,2194.71v63.93h-67V2021.87h115c63.59,0,95,39.92,95,86.25,0,48.37-31.8,85.92-95,86.59Zm0-56.48h48c18.6,0,28.07-13.53,28.07-29.09s-9.8-29.77-28.07-29.77h-48Z" transform="translate(1426.58 -1797.94)"/><path class="cls-5" d="M-975.79,2245.11V2035.4h101.47c26.14,0,47.52,7.54,61.82,21.8,12.7,12.67,19.7,30.76,19.7,50.92,0,45.18-30.5,72.49-81.59,73.06h-61.49v63.93Zm39.91-93.35h61.56c24.5,0,41.61-17.53,41.61-42.62s-17.5-43.3-41.61-43.3h-61.56Z" transform="translate(1426.58 -1797.94)"/><path class="cls-6" d="M-966.42,2235.74v-191h92.1c23.61,0,42.7,6.59,55.2,19.06,10.93,10.9,17,26.63,17,44.29,0,40-26.34,63.17-72.27,63.7h-70.8v63.92Zm21.18-74.62h70.92c29.54,0,51-21.86,51-52s-21.91-52.66-51-52.66h-70.92Z" transform="translate(1426.58 -1797.94)"/><path class="cls-1" d="M-348.67,2213.46c-7.17-13.32-18.72-30-37.47-42.81-40.7-27.85-88.74-19.39-89.21-25.88s45.86-8.73,92.78-29.43c39.7-17.52,67.62-42.78,85.64-62.45a360.5,360.5,0,0,1-19.8,93.61A359.5,359.5,0,0,1-348.67,2213.46Z" transform="translate(1426.58 -1797.94)"/></svg>